<?xml version="1.0" standalone="no"?>
<!DOCTYPE svg PUBLIC "-//W3C//DTD SVG 20010904//EN"
 "http://www.w3.org/TR/2001/REC-SVG-20010904/DTD/svg10.dtd">
<svg version="1.0" xmlns="http://www.w3.org/2000/svg"
  viewBox="0 0 512.000000 512.000000"
 preserveAspectRatio="xMidYMid meet">

<g transform="translate(0.000000,512.000000) scale(0.100000,-0.100000)"
fill="#000000" stroke="none">
<path d="M954 4959 c-53 -15 -127 -72 -156 -119 -39 -63 -48 -127 -48 -325 l0
-173 -147 -4 c-136 -4 -152 -6 -199 -31 -29 -14 -68 -45 -88 -69 -32 -37 -66
-117 -66 -155 0 -9 -17 -13 -58 -13 -68 0 -134 -29 -166 -73 -20 -28 -21 -40
-21 -485 l0 -457 23 -33 c45 -63 64 -67 297 -67 233 0 252 4 297 67 l23 33 0
457 c0 445 -1 457 -21 485 -32 44 -98 73 -166 73 -32 0 -58 2 -58 5 0 22 32
74 56 90 24 17 51 20 161 23 l133 4 2 -1411 3 -1410 22 -22 c27 -27 75 -29
103 -4 19 17 20 30 20 343 l0 324 33 -8 c42 -12 3212 -12 3255 0 l33 9 -3
-619 c-3 -689 -1 -664 -72 -698 -31 -15 -170 -16 -1586 -16 -1416 0 -1555 1
-1586 16 -59 28 -68 59 -72 236 -4 169 -7 179 -63 193 -20 5 -33 0 -55 -18
l-29 -25 0 -169 c0 -164 1 -169 28 -225 49 -99 128 -149 249 -156 l76 -4 4
-123 c3 -113 5 -124 30 -163 15 -22 49 -54 75 -69 l48 -28 205 0 c113 0 222 4
243 8 24 5 56 24 83 49 56 52 74 109 74 235 l0 93 690 0 690 0 0 -93 c0 -129
18 -185 76 -236 26 -22 63 -44 83 -48 20 -5 128 -8 241 -8 l205 0 48 28 c26
15 60 47 75 69 25 39 27 50 30 163 l4 123 76 4 c126 8 206 60 256 168 l21 45
3 1723 2 1724 133 -4 c110 -3 137 -6 161 -23 24 -16 56 -68 56 -90 0 -3 -26
-5 -58 -5 -68 0 -134 -29 -166 -73 -20 -28 -21 -40 -21 -485 l0 -457 23 -33
c45 -63 64 -67 297 -67 233 0 252 4 297 67 l23 33 0 455 0 455 -24 34 c-32 44
-92 71 -163 71 -41 0 -58 4 -58 13 0 38 -34 118 -66 155 -20 24 -59 55 -88 69
-47 25 -63 27 -198 31 l-146 4 -4 207 c-3 182 -6 211 -24 251 -30 64 -69 107
-128 138 l-51 27 -1590 2 c-937 1 -1603 -2 -1621 -8z m3192 -155 c58 -28 69
-60 69 -209 l0 -130 -1655 0 -1655 0 0 130 c0 148 11 181 67 208 30 15 172 17
1586 17 1418 0 1557 -1 1588 -16z m72 -611 l-3 -118 -1538 -5 c-1509 -5 -1539
-5 -1553 -24 -23 -33 -18 -82 12 -105 l27 -21 1528 0 1529 0 0 -710 0 -710
-255 0 c-273 0 -296 -4 -315 -49 -12 -30 -1 -73 22 -88 7 -4 132 -10 278 -13
l265 -5 -2 -62 c-2 -69 -20 -106 -64 -129 -42 -21 -3136 -21 -3178 0 -44 23
-62 60 -64 129 l-2 62 1247 5 c1167 5 1249 6 1268 22 27 24 27 79 -1 104 -20
18 -45 19 -401 24 l-381 5 359 300 c358 300 359 300 362 342 2 33 -1 44 -20
57 -37 26 -72 19 -125 -23 -26 -21 -221 -183 -432 -360 l-384 -321 -161 0
c-135 0 -158 2 -146 13 8 8 168 141 355 297 187 156 343 288 348 294 33 48 4
109 -55 114 -33 3 -61 -19 -466 -357 l-431 -361 -471 0 -470 0 0 905 0 905
1660 0 1661 0 -3 -117z m-3720 -680 l-3 -408 -170 0 -170 0 -3 408 -2 407 175
0 175 0 -2 -407z m4470 0 l-3 -408 -170 0 -170 0 -3 408 -2 407 175 0 175 0
-2 -407z m-3248 -3076 c0 -143 11 -137 -230 -137 -167 0 -201 2 -214 16 -12
12 -16 38 -16 115 l0 99 230 0 230 0 0 -93z m2140 -6 c0 -77 -4 -103 -16 -115
-13 -14 -47 -16 -214 -16 -241 0 -230 -6 -230 137 l0 93 230 0 230 0 0 -99z"/>
<path d="M1173 1725 c-56 -24 -73 -66 -73 -176 0 -126 18 -183 76 -249 86 -95
86 -95 419 -98 323 -4 336 -2 370 62 14 26 17 52 13 146 -3 100 -7 122 -30
166 -31 59 -83 108 -147 138 -43 20 -65 21 -321 23 -221 2 -281 0 -307 -12z
m577 -157 c57 -30 80 -74 80 -155 l0 -63 -239 0 c-231 0 -239 1 -272 23 -48
32 -69 79 -69 155 l0 62 228 0 c217 0 230 -1 272 -22z"/>
<path d="M3352 1725 c-81 -25 -141 -75 -180 -150 -23 -43 -27 -65 -30 -165 -4
-94 -1 -120 13 -146 34 -64 47 -66 370 -62 333 3 333 3 419 98 58 66 76 123
76 249 0 112 -18 153 -75 177 -47 19 -529 19 -593 -1z m518 -197 c0 -76 -21
-123 -69 -155 -33 -22 -41 -23 -272 -23 l-239 0 0 63 c0 81 23 125 80 155 42
21 55 22 272 22 l228 0 0 -62z"/>
<path d="M2174 1165 c-37 -26 -46 -65 -42 -194 3 -116 4 -122 31 -148 l27 -28
370 0 370 0 27 28 c27 26 28 32 31 148 3 80 0 131 -9 150 -24 60 -19 59 -419
59 -304 0 -369 -2 -386 -15z m666 -180 l0 -45 -280 0 -280 0 0 45 0 45 280 0
280 0 0 -45z"/>
</g>
</svg>
