<?xml version="1.0" standalone="no"?>
<!DOCTYPE svg PUBLIC "-//W3C//DTD SVG 20010904//EN"
 "http://www.w3.org/TR/2001/REC-SVG-20010904/DTD/svg10.dtd">
<svg version="1.0" xmlns="http://www.w3.org/2000/svg"
 viewBox="0 0 512.000000 512.000000"
 preserveAspectRatio="xMidYMid meet">

<g transform="translate(0.000000,512.000000) scale(0.100000,-0.100000)"
fill="#000000" stroke="none">
<path d="M1210 5105 c-292 -64 -505 -278 -564 -567 -14 -67 -16 -204 -16
-1068 l0 -990 -125 0 -125 0 0 315 0 315 80 0 80 0 0 645 0 645 -185 0 -185 0
0 -645 0 -645 75 0 75 0 0 -345 0 -345 155 0 154 0 3 -767 c3 -696 5 -774 21
-828 52 -177 155 -319 310 -424 l47 -32 0 -184 0 -185 315 0 315 0 0 145 0
145 890 0 890 0 0 -145 0 -145 315 0 315 0 0 179 0 179 78 55 c156 110 252
250 298 437 10 44 13 208 14 793 l0 737 175 0 175 0 0 325 0 325 80 0 80 0 0
645 0 645 -185 0 -185 0 0 -645 0 -645 75 0 75 0 0 -295 0 -295 -145 0 -145 0
0 1028 c0 997 -1 1031 -20 1108 -62 246 -239 430 -495 516 l-70 23 -1290 2
c-1079 1 -1301 -1 -1355 -12z m2180 -330 l0 -195 -840 0 -840 0 0 195 0 195
840 0 840 0 0 -195z m750 -1404 l0 -999 -41 -60 c-151 -227 -534 -398 -1029
-462 -347 -44 -846 -40 -1170 10 -302 47 -577 145 -745 265 -78 55 -174 158
-202 217 l-23 45 0 992 0 991 1605 0 1605 0 0 -999z m-2250 -2121 l0 -210
-465 0 -465 0 0 210 0 210 465 0 465 0 0 -210z m2250 0 l0 -210 -465 0 -465 0
0 203 c0 112 3 207 7 210 3 4 213 7 465 7 l458 0 0 -210z"/>
</g>
</svg>
