<?xml version="1.0" standalone="no"?>
<!DOCTYPE svg PUBLIC "-//W3C//DTD SVG 20010904//EN"
 "http://www.w3.org/TR/2001/REC-SVG-20010904/DTD/svg10.dtd">
<svg version="1.0" xmlns="http://www.w3.org/2000/svg"
  viewBox="0 0 512.000000 512.000000"
 preserveAspectRatio="xMidYMid meet">

<g transform="translate(0.000000,512.000000) scale(0.100000,-0.100000)"
fill="#ffffff" stroke="none">
<path d="M2740 4054 c-1053 -222 -1939 -408 -1968 -415 -29 -6 -66 -22 -82
-36 l-30 -25 0 -194 0 -194 -203 0 c-229 0 -278 -9 -348 -63 -23 -17 -56 -57
-73 -87 l-31 -55 -3 -808 c-2 -535 1 -821 8 -847 24 -90 130 -193 209 -202
l26 -3 6 -115 c4 -93 10 -124 29 -165 31 -63 91 -124 155 -156 l50 -24 2004
-3 2003 -2 59 26 c69 31 140 103 172 172 16 36 22 73 25 153 l4 106 83 5 c126
8 201 55 258 162 l22 41 0 830 0 830 -31 55 c-57 100 -151 150 -286 150 l-68
0 0 174 c0 97 -5 186 -11 204 -21 62 -22 62 -409 62 -222 0 -358 -4 -371 -10
-42 -23 -49 -59 -49 -250 l0 -180 -130 0 -130 0 0 174 c0 97 -5 186 -11 204
-21 62 -22 62 -409 62 -222 0 -358 -4 -371 -10 -42 -23 -49 -59 -49 -250 l0
-180 -965 0 -966 0 3 132 3 132 485 102 c267 56 1140 240 1940 409 1438 302
1455 306 1483 335 36 40 36 87 1 129 -22 27 -32 31 -72 30 -26 0 -909 -182
-1962 -405z m690 -744 l0 -120 -220 0 -220 0 0 120 0 120 220 0 220 0 0 -120z
m1100 0 l0 -120 -220 0 -220 0 0 120 0 120 220 0 220 0 0 -120z m361 -349 l29
-29 0 -771 c0 -543 -3 -777 -11 -794 -6 -14 -22 -30 -36 -36 -35 -16 -4596
-16 -4626 1 -12 6 -27 18 -34 27 -17 22 -19 1548 -2 1585 6 13 21 29 33 34 14
7 758 11 2319 11 l2299 1 29 -29z m-341 -1921 c0 -89 -13 -125 -56 -159 l-27
-21 -1970 0 -1969 0 -39 39 -39 39 0 91 0 91 2050 0 2050 0 0 -80z"/>
<path d="M490 2757 c-14 -7 -33 -28 -43 -47 -16 -32 -17 -75 -15 -573 l3 -539
33 -29 32 -29 305 0 305 0 32 29 33 29 0 556 0 556 -28 27 -27 28 -303 3
c-229 2 -308 -1 -327 -11z m490 -602 l0 -415 -175 0 -175 0 0 415 0 415 175 0
175 0 0 -415z"/>
<path d="M1421 2744 c-56 -47 -47 -134 16 -163 15 -7 111 -11 258 -11 l235 0
0 -484 0 -485 23 -26 c29 -34 87 -44 123 -20 53 35 54 41 54 602 0 473 -2 521
-18 553 -29 58 -37 60 -364 60 l-296 0 -31 -26z"/>
<path d="M3053 2760 c-32 -13 -57 -57 -56 -98 1 -27 9 -43 32 -64 l31 -28 240
0 241 0 -3 -157 -3 -158 -238 -3 c-265 -3 -277 -5 -297 -68 -10 -28 -9 -40 7
-72 27 -56 53 -61 311 -61 l222 -1 0 -155 0 -155 -239 0 -239 0 -30 -25 c-35
-30 -45 -69 -27 -111 26 -64 28 -64 362 -64 l303 0 32 29 33 29 0 556 0 556
-28 27 -27 28 -303 2 c-166 1 -312 -2 -324 -7z"/>
<path d="M4005 2761 c-11 -5 -29 -19 -40 -31 -19 -22 -20 -36 -20 -577 l0
-555 33 -29 32 -29 305 0 305 0 32 29 33 29 3 539 c2 498 1 541 -15 573 -30
58 -38 60 -358 59 -159 0 -299 -4 -310 -8z m485 -606 l0 -415 -175 0 -175 0 0
415 0 415 175 0 175 0 0 -415z"/>
<path d="M2523 2465 c-45 -19 -67 -57 -60 -103 18 -113 179 -110 194 4 5 36 1
45 -23 72 -35 37 -69 45 -111 27z"/>
<path d="M2495 2007 c-17 -14 -28 -36 -32 -63 -5 -36 -1 -46 25 -75 25 -28 37
-34 72 -34 35 0 47 6 72 34 26 29 30 39 25 75 -7 54 -44 86 -97 86 -26 0 -48
-8 -65 -23z"/>
</g>
</svg>
