<?xml version="1.0" standalone="no"?>
<!DOCTYPE svg PUBLIC "-//W3C//DTD SVG 20010904//EN"
 "http://www.w3.org/TR/2001/REC-SVG-20010904/DTD/svg10.dtd">
<svg version="1.0" xmlns="http://www.w3.org/2000/svg"
  viewBox="0 0 512.000000 512.000000"
 preserveAspectRatio="xMidYMid meet" fill="#ffffff">

<g transform="translate(0.000000,512.000000) scale(0.100000,-0.100000)"
 stroke="none">
<path d="M26 5097 c-33 -33 -33 -71 -1 -102 20 -21 34 -25 82 -25 101 -1 179
-54 203 -138 6 -22 10 -189 10 -424 0 -439 2 -452 81 -541 41 -48 145 -107
186 -107 20 0 23 -5 23 -35 0 -46 17 -80 47 -94 13 -6 66 -11 118 -11 l95 0 0
-105 0 -105 -29 0 c-16 0 -39 -9 -52 -19 -22 -17 -24 -28 -27 -129 l-4 -111
-262 -3 c-294 -3 -299 -5 -392 -90 -67 -61 -98 -135 -99 -229 0 -70 3 -81 30
-121 17 -23 47 -52 68 -63 20 -11 37 -27 37 -35 1 -31 41 -101 85 -149 28 -30
69 -59 108 -77 l62 -29 466 -5 466 -5 468 -540 c257 -297 473 -547 480 -555
11 -13 -45 -82 -381 -470 -217 -250 -402 -471 -411 -490 -37 -77 -9 -192 59
-243 70 -52 137 -59 213 -23 44 21 97 78 425 459 206 240 377 436 380 436 3 0
176 -198 384 -439 267 -309 390 -444 415 -456 124 -59 262 6 291 139 23 102
25 99 -419 612 -340 392 -397 462 -386 475 7 8 223 258 480 555 l468 540 466
5 466 5 62 29 c39 18 80 47 108 77 44 48 84 118 85 149 0 8 17 24 37 35 21 11
51 40 68 63 27 40 30 51 30 121 0 63 -5 87 -28 133 -30 62 -92 124 -159 160
l-43 23 -775 3 -775 2 -19 52 c-25 70 -112 158 -185 185 -52 19 -54 21 -76 85
-87 249 -287 505 -507 651 -209 138 -405 206 -654 227 -157 13 -652 13 -733 0
-147 -24 -250 -123 -282 -270 l-11 -50 -103 0 c-122 0 -143 -11 -152 -78 -3
-23 -8 -42 -10 -42 -21 0 -88 51 -106 80 -22 34 -22 44 -27 455 l-5 420 -28
57 c-61 123 -161 189 -304 196 -77 4 -83 3 -107 -21z m2007 -918 c302 -61 582
-248 751 -501 55 -84 126 -226 126 -254 0 -12 -125 -14 -942 -12 l-943 3 -3
300 c-2 193 1 316 8 344 14 58 43 97 88 121 35 18 61 19 425 20 354 0 398 -2
490 -21z m-1163 -355 l0 -55 -52 3 -53 3 -3 53 -3 52 55 0 56 0 0 -56z m2220
-584 c33 -17 80 -66 80 -84 0 -3 -506 -6 -1125 -6 l-1125 0 0 55 0 55 1065 0
c1042 0 1067 0 1105 -20z m1780 -260 c69 -35 118 -138 91 -189 l-12 -21 -2389
0 -2389 0 -12 21 c-27 51 21 153 88 188 38 20 65 20 2311 21 2261 0 2273 0
2312 -20z m-60 -390 c-6 -10 -27 -32 -47 -47 l-36 -28 -2167 0 -2167 0 -36 28
c-20 15 -41 37 -47 47 -11 20 8 20 2250 20 2242 0 2261 0 2250 -20z m-2229
-1296 c503 -581 917 -1063 920 -1072 15 -40 -37 -88 -71 -67 -12 7 -1881 2162
-1894 2183 -5 9 12 12 62 12 l69 0 914 -1056z m637 1016 c-115 -137 -654 -758
-658 -758 -4 0 -543 621 -658 758 l-34 40 692 0 692 0 -34 -40z m366 28 c-19
-31 -846 -978 -854 -978 -5 0 -22 16 -39 37 l-30 36 22 26 c12 15 190 221 396
459 l374 432 69 0 c52 0 67 -3 62 -12z m-1147 -1327 c-13 -14 -181 -208 -374
-431 -192 -223 -357 -411 -366 -419 -36 -30 -95 16 -78 61 3 9 177 214 386
457 l380 440 38 -41 38 -41 -24 -26z"/>
<path d="M1425 4022 c-145 -68 -164 -256 -36 -347 l43 -30 323 -3 c315 -3 325
-2 345 18 70 70 -40 269 -188 342 l-67 33 -190 3 c-168 2 -195 0 -230 -16z
m398 -146 c41 -15 107 -62 107 -77 0 -5 -88 -9 -222 -9 -192 0 -224 2 -240 17
-23 21 -23 38 2 63 18 18 33 20 168 20 96 -1 160 -5 185 -14z"/>
<path d="M2405 3825 c-43 -42 -34 -66 66 -173 50 -53 101 -100 114 -103 51
-14 105 44 86 93 -13 35 -115 151 -159 182 -47 32 -76 33 -107 1z"/>
</g>
</svg>
