<svg xmlns="http://www.w3.org/2000/svg" xmlns:xlink="http://www.w3.org/1999/xlink" version="1.1" viewBox="0 0 288 72">
<g id="layer_1" data-name="Layer 1">
<path transform="matrix(1,0,0,-1,0,72)" d="M14.7688 33.7105H28.705C29.4341 33.7105 30.1014 33.5565 30.7162 33.2527 31.3313 32.9477 31.8716 32.5511 32.334 32.0598 32.7997 31.5561 33.1637 31.0068 33.4389 30.3741 33.7164 29.7544 33.8559 29.1078 33.8559 28.4335 33.8559 27.7651 33.7164 27.0958 33.4389 26.4192 33.1637 25.7536 32.7997 25.1314 32.334 24.5829 31.8234 23.9661 31.2231 23.4748 30.5308 23.1106 29.9755 22.8226 29.3417 22.6837 28.705 22.6837H13.2732V49.3438H28.705C29.3417 49.3438 29.9755 49.2094 30.5308 48.9166 31.2231 48.558 31.8234 48.0668 32.334 47.4503 32.7997 46.8967 33.1637 46.2776 33.4389 45.6111 33.7164 44.9314 33.8559 44.263 33.8559 43.5994 33.8559 42.9191 33.7164 42.2785 33.4389 41.656 33.1637 41.0227 32.7997 40.4717 32.334 39.9696 31.8716 39.477 31.3313 39.0793 30.7162 38.7754 30.1014 38.4712 29.4341 38.3176 28.705 38.3176H14.9488C14.4567 38.3176 14.4167 38.2377 14.3728 37.781L14.1894 34.2471C14.1559 33.7785 14.2809 33.7105 14.7688 33.7105ZM268.9722 19.41 268.3797 18.8592H260.8736L260.2857 19.41 260.3718 19.4329 260.4254 19.4681 260.5096 19.5613 260.4609 19.9585 260.1337 20.3338 260.1241 20.3448 259.9617 20.4854 257.3722 22.6996 244.4383 33.7697 242.6559 32.2353V23.7875L242.6927 23.0593C242.7191 22.5544 242.7429 22.0802 242.8058 21.6198 242.8659 21.1646 242.97 20.789 243.1312 20.4741 243.2857 20.1668 243.5318 20.0081 243.8473 20.0081L242.6559 18.8592H237.3446L236.1767 20.0081C236.4514 20.0081 236.6617 20.1668 236.8539 20.4741 237.018 20.789 237.1414 21.1646 237.204 21.6198 237.2426 22.0802 237.3055 22.5544 237.318 23.0593L237.3446 23.9496V47.7437C237.3446 48.1028 237.3446 48.5388 237.318 49.0292 237.3055 49.517 237.2426 50.0128 237.204 50.4575 237.1666 50.7368 237.1034 50.9882 237.018 51.211V51.2161L236.9415 51.4196V51.4244L236.8539 51.6135 236.7797 51.7207V51.7235L236.6668 51.8661 236.6595 51.8712 236.6257 51.8987 236.6184 51.9097 236.6048 51.9233H236.5994L236.4718 52.0115 236.4593 52.014V52.0166L236.3723 52.0489 236.1767 52.0795 237.3446 53.1848H242.6559L243.8473 52.0795C243.5318 52.0795 243.2857 51.9316 243.1312 51.6135 242.97 51.3116 242.8659 50.9119 242.8058 50.4575 242.7429 50.0128 242.7191 49.517 242.6927 49.0065 242.6559 48.5002 242.6559 48.0557 242.6559 47.6912V39.8086L253.7793 49.3438 256.3699 51.5537 256.5306 51.6991 256.8682 52.0795 256.919 52.4823 256.8325 52.5759 256.7795 52.611 256.6947 52.634 257.2852 53.1848H264.7894L265.3801 52.634 265.3534 52.6195C265.2548 52.5866 264.7894 52.3843 263.6711 51.427L261.2373 49.3438 247.3245 37.4323 264.8282 22.6996 267.2631 20.611C268.3797 19.6543 268.8477 19.4573 268.9469 19.4219ZM76.307 19.41 75.7159 18.8592H68.2095L67.6216 19.41 67.7078 19.4329 67.7614 19.4681 67.8455 19.5613 67.7974 19.9585 67.4694 20.3338 67.4575 20.3448 67.2953 20.4854 64.7082 22.6996 51.7725 33.7697 49.9898 32.2353V23.7875L50.0287 23.0593C50.0528 22.5544 50.0791 22.0802 50.142 21.6198 50.1999 21.1646 50.3031 20.789 50.4652 20.4741 50.622 20.1668 50.868 20.0081 51.1835 20.0081L49.9898 18.8592H44.8824L43.7159 20.0081C43.9926 20.0081 44.2026 20.1668 44.3931 20.4741 44.5598 20.789 44.6805 21.1646 44.7426 21.6198 44.7837 22.0802 44.8464 22.5544 44.8588 23.0593L44.8824 23.9496V47.7437C44.8824 48.1028 44.8824 48.5388 44.8588 49.0292 44.8464 49.517 44.7837 50.0128 44.7426 50.4575 44.7066 50.7368 44.6445 50.9882 44.5598 51.211V51.2161L44.4824 51.4196V51.4244L44.3931 51.6135 44.3205 51.7207V51.7235L44.2057 51.8661 44.1978 51.8712 44.166 51.8987 44.1598 51.9097 44.1425 51.9233H44.14L44.0118 52.0115 44.0008 52.014V52.0166L43.9106 52.0489 43.7159 52.0795 44.8824 53.1848H49.9898L51.1835 52.0795C50.868 52.0795 50.622 51.9316 50.4652 51.6135 50.3031 51.3116 50.1999 50.9119 50.142 50.4575 50.0791 50.0128 50.0528 49.517 50.0287 49.0065 49.9898 48.5002 49.9898 48.0557 49.9898 47.6912V39.8086L61.1152 49.3438 63.703 51.5537 63.8649 51.6991 64.2042 52.0795 64.2552 52.4823 64.1676 52.5759 64.1157 52.611 64.031 52.634 64.6191 53.1848H72.1253L72.7143 52.634 72.6894 52.6195C72.5882 52.5866 72.1253 52.3843 71.0065 51.427L68.5735 49.3438 54.6585 37.4323 72.1621 22.6996 74.5994 20.611C75.7159 19.6543 76.1839 19.4573 76.2829 19.4219ZM77.4811 34.7168H88.9203V37.3249H77.4811ZM280.2631 20.2927C280.1177 20.5676 280.0239 20.9126 279.9711 21.3208 279.921 21.7298 279.8841 22.1564 279.8643 22.5955 279.8507 23.0372 279.8391 23.4371 279.8391 23.798V48.2749C279.8391 48.602 279.8507 48.9937 279.8643 49.4515 279.8841 49.9085 279.921 50.3419 279.9711 50.7501 280.0239 51.1591 280.1177 51.5041 280.2631 51.7839 280.4029 52.0577 280.6121 52.2003 280.8918 52.2003L279.8391 53.1788H274.5748L273.5252 52.2003C273.7692 52.2003 273.9719 52.0577 274.1301 51.7839 274.2877 51.5041 274.3909 51.1591 274.4473 50.7501 274.4977 50.3419 274.5309 49.9192 274.5496 49.4785 274.5675 49.0351 274.5748 48.6476 274.5748 48.3211V23.798C274.5748 23.4371 274.5675 23.0372 274.5496 22.5955 274.5309 22.1564 274.4977 21.7298 274.4473 21.3208 274.3909 20.9126 274.2877 20.5676 274.1301 20.2927 273.9719 20.014 273.7692 19.8737 273.5252 19.8737L274.5748 18.8467H279.8391L280.8918 19.8737C280.6121 19.8737 280.4029 20.014 280.2631 20.2927ZM231.2365 52.3256H231.2323L230.3371 53.1621H225.235L224.3401 52.3287C224.581 52.3287 224.697 52.1921 224.697 51.9123L224.6409 51.4933 223.7879 49.2542 223.7805 49.2375 223.7397 49.1284 222.3334 45.4414 220.2551 40.011 219.46 37.9363 217.9695 34.0447 217.55 32.9536 213.9571 23.5774 210.2947 33.1257 209.9446 34.0447 208.4522 37.9363 207.7946 39.6556 205.5781 45.4414 204.1724 49.1284 204.0735 49.3903 204.0534 49.4371 204.006 49.5573 203.2846 51.4497 203.2804 51.4681 203.2172 51.9123C203.2172 52.1921 203.3362 52.3287 203.5769 52.3287L202.682 53.1621H197.5725L196.6805 52.3256 196.5523 52.2057C196.7939 52.2057 197.0569 52.0634 197.3429 51.7805 197.6352 51.4933 197.9028 51.1532 198.1607 50.7594 198.419 50.3612 198.6525 49.9507 198.8796 49.523L199.0704 49.1284C199.1954 48.867 199.2917 48.6428 199.3615 48.4481L210.6388 18.8181H217.2725L228.5524 48.4481C228.6227 48.6428 228.7165 48.867 228.8424 49.1284L228.8659 49.1717 229.0354 49.523C229.254 49.9507 229.496 50.3612 229.7511 50.7594 230.0068 51.1532 230.2792 51.4933 230.5687 51.7805 230.8535 52.0634 231.1186 52.2057 231.3615 52.2057ZM178.9089 37.9341 182.9222 48.4019 186.9338 37.9341ZM199.5352 20.1969C199.2436 20.4854 198.9765 20.825 198.718 21.2199 198.4601 21.6173 198.2234 22.028 197.9991 22.4563L197.8089 22.8512C197.6839 23.1106 197.587 23.3354 197.5167 23.5307L186.2396 53.1598H179.606L168.3258 23.5307C168.2563 23.3354 168.1594 23.1106 168.0344 22.8512L168.0126 22.8042 167.8431 22.4563C167.6222 22.028 167.3833 21.6173 167.125 21.2199 166.8722 20.825 166.6001 20.4854 166.3078 20.1969 166.0263 19.9157 165.7604 19.7722 165.5167 19.7722L165.6425 19.652H165.6479L166.5411 18.8155H171.642L172.5369 19.6486C172.2971 19.6486 172.1786 19.7864 172.1786 20.0662L172.2351 20.4854 173.0883 22.7242 173.0957 22.7409 173.1365 22.8512 174.5427 26.5371 177.4188 34.0421H188.4243L191.3006 26.5371 192.706 22.8512 192.8058 22.5873 192.8248 22.5403 192.873 22.4201 193.5944 20.5288 193.5961 20.5098 193.659 20.0662C193.659 19.7864 193.5408 19.6486 193.3021 19.6486L194.197 18.8155H199.3068L200.1986 19.652 200.3261 19.7722C200.0829 19.7722 199.8224 19.9157 199.5352 20.1969ZM161.4662 20.2927C161.3262 20.5676 161.2293 20.9126 161.1788 21.3208 161.1241 21.7298 161.0898 22.1564 161.0728 22.5955 161.0538 23.0372 161.0464 23.4371 161.0464 23.798V48.2264C161.0464 48.5521 161.0538 48.9416 161.0728 49.4014 161.0898 49.8591 161.1241 50.2948 161.1788 50.7036 161.2293 51.1121 161.3262 51.4519 161.4662 51.7317 161.606 52.0115 161.8206 52.1507 162.1003 52.1507L161.0464 53.1326H155.7831L154.7286 52.1507C154.9769 52.1507 155.1798 52.0115 155.3363 51.7317 155.4908 51.4519 155.5991 51.1121 155.6507 50.7036 155.7057 50.2948 155.7391 49.8674 155.7561 49.4297 155.7751 48.9878 155.7831 48.602 155.7831 48.2749V37.9726H134.7301V48.2264C134.7301 48.5521 134.7364 48.9416 134.7565 49.4014 134.7729 49.8591 134.8067 50.2948 134.8625 50.7036 134.913 51.1121 135.0099 51.4519 135.1488 51.7317 135.2894 52.0115 135.4989 52.1507 135.7829 52.1507L134.7301 53.1326H129.4662L128.4123 52.1507C128.6603 52.1507 128.8624 52.0115 129.0169 51.7317 129.1742 51.4519 129.282 51.1121 129.3327 50.7036 129.3883 50.2948 129.4226 49.8674 129.4398 49.4297 129.4586 48.9878 129.4662 48.602 129.4662 48.2749V23.798C129.4662 23.4371 129.4586 23.0372 129.4398 22.5955 129.4226 22.1564 129.3883 21.7298 129.3327 21.3208 129.282 20.9126 129.1742 20.5676 129.0169 20.2927 128.8624 20.014 128.6603 19.8737 128.4123 19.8737L129.4662 18.8467H134.7301L135.7829 19.8737C135.4989 19.8737 135.2894 20.014 135.1488 20.2927 135.0099 20.5676 134.913 20.9126 134.8625 21.3208 134.8067 21.7298 134.7729 22.1564 134.7565 22.5955 134.7364 23.0372 134.7301 23.4371 134.7301 23.798V34.0529H155.7831V23.798C155.7831 23.4371 155.7751 23.0372 155.7561 22.5955 155.7391 22.1564 155.7057 21.7298 155.6507 21.3208 155.5991 20.9126 155.4908 20.5676 155.3363 20.2927 155.1798 20.014 154.9769 19.8737 154.7286 19.8737L155.7831 18.8467H161.0464L162.1003 19.8737C161.8206 19.8737 161.606 20.014 161.4662 20.2927ZM122.934 53.1788H93.5668L92.4625 49.2542 93.5133 48.2749C93.5133 48.7627 93.8557 49.051 94.5386 49.1332 95.2228 49.2131 95.9321 49.2542 96.6725 49.2542H105.5653V23.798C105.5653 23.4371 105.5557 23.0372 105.5412 22.5955 105.522 22.1564 105.4854 21.7298 105.4329 21.3208 105.3822 20.9126 105.2759 20.5676 105.1166 20.2927 104.9604 20.014 104.7574 19.8737 104.5137 19.8737L105.5653 18.8467H110.8315L111.8835 19.8737C111.6003 19.8737 111.3911 20.014 111.2513 20.2927 111.1113 20.5676 111.0146 20.9126 110.9597 21.3208 110.9092 21.7298 110.8749 22.1564 110.8559 22.5955 110.838 23.0372 110.8315 23.4371 110.8315 23.798V49.2542H119.8295C120.5677 49.2542 121.2769 49.2131 121.9615 49.1332 122.6472 49.051 122.9893 48.7627 122.9893 48.2749L124.0424 49.2542ZM35.4234 36.0156C36.2265 36.6489 36.9181 37.7935 37.5072 38.6603 38.5002 40.1241 38.9897 41.7713 38.9897 43.5994 38.9897 44.9087 38.7269 46.1401 38.1747 47.3071 37.6228 48.4773 36.8921 49.4836 35.9654 50.3501 35.0325 51.2161 33.9426 51.9075 32.6985 52.4115 31.445 52.9243 30.1113 53.1848 28.705 53.1848H8.14L7.1079 52.1785C7.3466 52.1785 7.5467 52.0359 7.6966 51.7643 7.8483 51.4981 7.962 51.1557 8.0093 50.7594 8.0626 50.3612 8.0861 49.9414 8.1133 49.5051 8.1258 49.087 8.14 48.689 8.14 48.3386V23.6917C8.14 23.3405 8.1258 22.9439 8.1133 22.521 8.0861 22.0915 8.0626 21.6669 8.0093 21.2686 7.962 20.8715 7.8483 20.5347 7.6966 20.2635 7.5467 19.9973 7.3466 19.8544 7.1079 19.8544L8.14 18.8481H28.705C30.1113 18.8481 31.445 19.1035 32.6985 19.6217 33.9426 20.1231 35.0325 20.8142 35.9654 21.6774 36.8921 22.5462 37.6228 23.5519 38.1747 24.7221 38.7269 25.8928 38.9897 27.1208 38.9897 28.4335 38.9897 30.257 38.5002 31.9088 37.5072 33.3677 36.9181 34.236 36.2265 35.384 35.4234 36.0156" fill="#025b89"/>
</g>
</svg>
