<?xml version="1.0" standalone="no"?>
<!DOCTYPE svg PUBLIC "-//W3C//DTD SVG 20010904//EN"
 "http://www.w3.org/TR/2001/REC-SVG-20010904/DTD/svg10.dtd">
<svg version="1.0" xmlns="http://www.w3.org/2000/svg"
  viewBox="0 0 512.000000 512.000000"
 preserveAspectRatio="xMidYMid meet">

<g transform="translate(0.000000,512.000000) scale(0.100000,-0.100000)"
fill="#FFFFFF" stroke="none">
<path d="M925 4598 c-189 -36 -360 -204 -400 -395 -22 -102 -22 -3184 0 -3286
41 -195 212 -360 409 -396 41 -8 552 -11 1630 -11 1326 0 1582 3 1639 15 190
40 352 202 392 392 22 102 22 3184 0 3286 -40 190 -202 352 -392 392 -58 12
-311 15 -1648 14 -948 -1 -1600 -5 -1630 -11z m3295 -224 c73 -34 116 -76 151
-149 l29 -60 0 -1605 0 -1605 -24 -51 c-34 -73 -83 -123 -151 -156 l-60 -28
-1605 0 -1605 0 -51 24 c-73 34 -123 83 -156 151 l-28 60 0 1605 0 1605 28 60
c33 68 83 117 156 151 l51 24 1605 0 1605 0 55 -26z"/>
<path d="M3017 3979 c-21 -12 -47 -61 -47 -89 0 -33 26 -75 55 -88 18 -8 114
-12 323 -12 l297 0 -333 -333 c-312 -312 -334 -336 -339 -375 -5 -38 -2 -45
31 -78 33 -33 40 -36 78 -31 39 5 63 27 375 339 l333 333 0 -297 c0 -209 4
-305 12 -323 13 -29 55 -55 88 -55 29 0 77 27 90 49 6 13 10 179 10 466 l0
447 -29 29 -29 29 -449 0 c-286 0 -454 -4 -466 -11z"/>
<path d="M1178 2134 c-15 -8 -32 -23 -38 -34 -6 -12 -10 -179 -10 -465 l0
-447 29 -29 29 -29 447 0 c287 0 453 4 466 10 22 13 49 61 49 90 0 33 -26 75
-55 88 -18 8 -114 12 -323 12 l-297 0 333 333 c288 288 333 338 338 369 8 45
-18 92 -58 109 -63 26 -73 19 -425 -334 l-333 -332 0 297 c0 320 -3 338 -51
364 -35 18 -66 17 -101 -2z"/>
</g>
</svg>
