<?xml version="1.0" standalone="no"?>
<!DOCTYPE svg PUBLIC "-//W3C//DTD SVG 20010904//EN"
 "http://www.w3.org/TR/2001/REC-SVG-20010904/DTD/svg10.dtd">
<svg version="1.0" xmlns="http://www.w3.org/2000/svg"
 viewBox="0 0 512.000000 512.000000"
 preserveAspectRatio="xMidYMid meet" fill="#ffffff">

<g transform="translate(0.000000,512.000000) scale(0.100000,-0.100000)"
 stroke="none">
<path d="M3657 5100 c-30 -23 -47 -74 -47 -137 l0 -43 -1592 -2 -1593 -3 -46
-21 c-60 -28 -125 -93 -153 -153 l-21 -46 0 -2135 0 -2135 21 -46 c28 -60 87
-119 150 -150 l49 -24 1591 -3 1591 -2 5 -65 c11 -130 65 -156 251 -121 151
29 287 99 399 204 81 77 137 154 183 256 65 142 68 164 72 569 l5 367 165 0
c93 0 173 4 184 10 51 28 49 -12 49 1140 0 1152 2 1112 -49 1140 -11 6 -91 10
-184 10 l-165 0 -5 368 c-5 421 -7 435 -88 600 -110 222 -319 381 -566 428
-108 20 -175 18 -206 -6z m246 -211 c182 -61 318 -197 384 -384 l28 -80 0
-1865 0 -1865 -28 -80 c-51 -142 -150 -265 -270 -334 -53 -30 -164 -71 -192
-71 -13 0 -15 246 -15 2350 0 2104 2 2350 15 2350 9 0 44 -9 78 -21z m-293
-2329 l0 -2160 -1571 0 -1571 0 -34 34 -34 34 0 2092 0 2092 34 34 34 34 1571
0 1571 0 0 -2160z m1110 0 l0 -950 -100 0 -100 0 0 950 0 950 100 0 100 0 0
-950z"/>
<path d="M758 4404 c-62 -33 -58 96 -58 -1844 0 -1563 2 -1774 15 -1800 33
-64 -45 -60 1288 -60 863 0 1223 3 1246 11 65 23 61 -111 61 1849 0 1960 4
1826 -61 1849 -23 8 -383 11 -1248 11 -1056 -1 -1220 -3 -1243 -16z m2352
-689 l0 -505 -100 0 -100 0 0 319 c0 306 -1 319 -20 344 -31 39 -77 47 -280
47 -203 0 -249 -8 -280 -47 -19 -25 -20 -38 -20 -344 l0 -319 -100 0 -100 0 0
313 c0 291 -1 314 -20 344 -13 21 -31 35 -57 42 -51 15 -805 15 -856 0 -71
-19 -72 -23 -75 -381 l-3 -318 -100 0 -99 0 0 505 0 505 1105 0 1105 0 0 -505z
m-1605 -250 l0 -250 -100 0 -100 0 -3 240 c-1 132 0 245 3 253 3 9 29 12 102
10 l98 -3 0 -250z m403 -2 l2 -253 -100 0 -100 0 0 255 0 256 98 -3 97 -3 3
-252z m802 2 l0 -255 -100 0 -100 0 0 255 0 255 100 0 100 0 0 -255z m400
-1510 l0 -1055 -100 0 -100 0 0 463 c0 560 1 556 -123 710 -30 37 -59 85 -66
106 -7 25 -11 131 -11 295 0 279 -4 301 -55 324 -18 8 -97 12 -248 12 -203 0
-225 -2 -254 -20 -18 -11 -35 -30 -38 -42 -2 -13 -6 -144 -7 -293 -3 -258 -4
-272 -25 -310 -13 -22 -34 -53 -47 -70 -25 -29 -25 -29 -47 -10 -11 11 -33 40
-48 65 l-26 45 -5 288 -5 289 -33 29 -32 29 -235 0 c-233 0 -234 0 -262 -24
l-28 -24 -5 -284 c-6 -319 -6 -317 -84 -408 -63 -74 -104 -160 -116 -245 -5
-38 -10 -262 -10 -497 l0 -428 -100 0 -100 0 0 1055 0 1055 1105 0 1105 0 0
-1055z m-1398 418 l3 -238 31 -65 c18 -36 55 -92 83 -125 82 -95 81 -91 81
-602 l0 -443 -302 2 -303 3 0 460 c0 456 0 460 22 502 12 22 41 63 64 90 56
64 96 152 109 238 5 39 10 148 10 243 l0 172 99 0 99 0 4 -237z m798 37 c0
-109 5 -223 11 -252 15 -70 57 -152 108 -210 83 -94 81 -74 81 -590 l0 -458
-300 0 -301 0 3 473 3 474 25 35 c14 19 46 63 72 97 84 110 91 142 96 404 l4
227 99 0 99 0 0 -200z"/>
</g>
</svg>
