<?xml version="1.0" standalone="no"?>
<!DOCTYPE svg PUBLIC "-//W3C//DTD SVG 20010904//EN"
 "http://www.w3.org/TR/2001/REC-SVG-20010904/DTD/svg10.dtd">
<svg version="1.0" xmlns="http://www.w3.org/2000/svg"
 viewBox="0 0 64.000000 64.000000"
 preserveAspectRatio="xMidYMid meet">

<g transform="translate(0.000000,64.000000) scale(0.100000,-0.100000)"
fill="#000000" stroke="none">
<path d="M33 572 c-6 -4 -17 -20 -22 -35 -15 -38 -14 -444 0 -485 15 -42 50
-52 189 -52 120 0 174 11 184 36 4 9 21 14 53 14 40 0 50 -4 58 -22 12 -28 34
-29 49 -3 6 11 16 23 22 27 17 11 5 100 -15 118 -10 9 -20 35 -24 59 -7 52
-31 81 -68 81 -57 0 -59 4 -59 105 0 93 -10 143 -33 157 -7 4 -82 8 -167 8
-85 0 -160 -4 -167 -8z m325 -272 c2 -221 1 -246 -15 -257 -21 -16 -255 -18
-284 -3 -18 10 -19 24 -19 254 0 133 3 246 7 250 4 3 75 5 157 4 l151 -3 3
-245z m136 -52 c5 -15 7 -30 4 -33 -2 -3 -26 -2 -51 1 -44 6 -47 9 -47 36 0
28 2 29 42 26 36 -3 44 -7 52 -30z m-66 -126 c-5 -55 -28 -53 -28 2 0 37 3 44
16 39 10 -4 14 -16 12 -41z m112 13 c0 -8 -9 -15 -20 -15 -11 0 -20 7 -20 15
0 8 9 15 20 15 11 0 20 -7 20 -15z"/>
<path d="M60 320 l0 -200 140 0 140 0 0 200 0 200 -140 0 -140 0 0 -200z m223
80 c39 -44 38 -107 -2 -152 -43 -48 -119 -48 -162 0 -40 44 -38 62 6 62 19 0
35 -4 35 -10 0 -5 18 -10 40 -10 39 0 40 1 40 35 0 34 -1 35 -40 35 -29 0 -40
-4 -40 -15 0 -10 -11 -15 -35 -15 -27 0 -35 4 -35 19 0 23 36 70 64 82 40 17
99 3 129 -31z"/>
<path d="M180 75 c0 -8 9 -15 20 -15 11 0 20 7 20 15 0 8 -9 15 -20 15 -11 0
-20 -7 -20 -15z"/>
<path d="M610 20 c0 -5 5 -10 10 -10 6 0 10 5 10 10 0 6 -4 10 -10 10 -5 0
-10 -4 -10 -10z"/>
</g>
</svg>
